<svg id="Layer_1" data-name="Layer 1" xmlns="http://www.w3.org/2000/svg" viewBox="0 0 1221.53 703.08"><defs><style>.cls-1,.cls-2,.cls-4{fill:#bfbfbf;}.cls-1{opacity:0.12;}.cls-2{opacity:0.1;}.cls-3{opacity:0.5;}.cls-4{opacity:0.05;}</style></defs><path class="cls-1" d="M0,552c111,0,201-86.41,201-193S111,166,0,166" transform="translate(0 -0.13)"/><path class="cls-1" d="M1221.53,178c-39,0-70.53-39.82-70.53-88.93S1182.58.13,1221.53.13" transform="translate(0 -0.13)"/><polygon class="cls-2" points="243.87 83.48 222.39 81.78 208.82 98.51 203.8 77.56 183.69 69.81 202.06 58.56 203.22 37.05 219.59 51.05 240.41 45.5 232.16 65.4 243.87 83.48"/><polygon class="cls-2" points="818.01 472.3 733.88 468.14 678.89 531.95 661.31 454.27 583.18 427.42 656.45 383.58 663.15 303.18 726.01 353.75 808.28 330.91 773.86 406.02 818.01 472.3"/><polyline class="cls-2" points="725.93 354.19 808.21 331.35 773.79 406.45 817.94 472.74 733.8 468.58 678.82 532.39"/><g class="cls-3"><polygon class="cls-2" points="1106.86 640.53 1060.31 634.91 1032.29 672.5 1019.78 623.68 975.72 604.19 1014.54 579.64 1015.33 530 1051.83 563.66 1096.38 552.46 1080.12 597.81 1106.86 640.53"/><polyline class="cls-2" points="1051.81 563.92 1096.36 552.73 1080.09 598.08 1106.84 640.8 1060.29 635.18 1032.26 672.77"/></g><ellipse class="cls-2" cx="931.71" cy="167.53" rx="55.38" ry="56.3" transform="translate(41.46 489.29) rotate(-30.07)"/><path class="cls-4" d="M903.5,118.82c26.47-15.33,60.56-5.94,76.14,21s6.75,61.14-19.72,76.46" transform="translate(0 -0.13)"/><ellipse class="cls-2" cx="291.52" cy="647.13" rx="55.38" ry="56.3" transform="translate(-285.03 233.05) rotate(-30.07)"/><path class="cls-4" d="M263.31,598.41c26.47-15.32,60.55-5.93,76.13,21s6.76,61.14-19.71,76.47" transform="translate(0 -0.13)"/></svg>